# xmcd
#
# Track frame offsets: 
#        225
#        15512
#        32236
#        49843
#        64018
#        78708
#        93530
#        105066
#        119890
#        134213
#        145359
#        158996
#        174664
#        194176
#
# Disc length: 2836 seconds
#
# Revision: 0
# Processed by: cddbd v1.5.2PL0 Copyright (c) Steve Scherf et al.
# Submitted via: ExactAudioCopy v0.99pb5
#
DISCID=d40b110e
DTITLE=G. Thomas - Wishful Thinking
DYEAR=2005
DGENRE=Country
TTITLE0=We All Get Lucky Sometimes
TTITLE1=Barefooted Boys
TTITLE2=Old Enough to Know Better
TTITLE3=Something 'bout You
TTITLE4=Wishful Thinkin'
TTITLE5=I'm Not Thinking Straight Anymore
TTITLE6=Brother Jukebox
TTITLE7=I've Loved Alot More Than I've Hurt
TTITLE8=The Lion and the Lamb
TTITLE9=Big Ol' Brew
TTITLE10=The Thorn and the Rose
TTITLE11=Givin' Water to a Drowning Man
TTITLE12=High Riding Heroes
TTITLE13=Jesus in a Leather Jacket
EXTD=
EXTT0=
EXTT1=
EXTT2=
EXTT3=
EXTT4=
EXTT5=
EXTT6=
EXTT7=
EXTT8=
EXTT9=
EXTT10=
EXTT11=
EXTT12=
EXTT13=
PLAYORDER=
